G04*
G04 #@! TF.GenerationSoftware,Altium Limited,Altium Designer,19.0.12 (326)*
G04*
G04 Layer_Color=8388736*
%FSLAX24Y24*%
%MOIN*%
G70*
G01*
G75*
%ADD15C,0.0059*%
D15*
X38307Y26378D02*
G03*
X38307Y26378I-2874J0D01*
G01*
X35532Y32794D02*
G03*
X31275Y31266I-99J-6417D01*
G01*
X31275Y31266D02*
G03*
X35532Y19961I4158J-4888D01*
G01*
X39823Y21613D02*
G03*
X39637Y21536I0J-263D01*
G01*
X35334Y19961D02*
G03*
X39591Y21490I99J6417D01*
G01*
Y31266D02*
G03*
X35334Y32794I-4158J-4888D01*
G01*
X39637Y31220D02*
G03*
X39823Y31143I186J186D01*
G01*
X21378Y26378D02*
G03*
X21378Y26378I-2874J0D01*
G01*
X18603Y32794D02*
G03*
X14346Y31266I-99J-6417D01*
G01*
X14346Y31266D02*
G03*
X18603Y19961I4158J-4888D01*
G01*
X22894Y21613D02*
G03*
X22708Y21536I0J-263D01*
G01*
X18405Y19961D02*
G03*
X22662Y21490I99J6417D01*
G01*
Y31266D02*
G03*
X18405Y32794I-4158J-4888D01*
G01*
X22708Y31220D02*
G03*
X22894Y31143I186J186D01*
G01*
X39637Y46968D02*
G03*
X39823Y46891I186J186D01*
G01*
Y37361D02*
G03*
X39637Y37284I0J-263D01*
G01*
Y46968D02*
G03*
X39823Y46891I186J186D01*
G01*
Y37361D02*
G03*
X39637Y37284I0J-263D01*
G01*
X35532Y48543D02*
G03*
X31275Y47014I-99J-6417D01*
G01*
X31229Y37284D02*
G03*
X31043Y37361I-186J-186D01*
G01*
Y46891D02*
G03*
X31229Y46968I0J263D01*
G01*
X39591Y47014D02*
G03*
X35334Y48543I-4158J-4888D01*
G01*
Y35709D02*
G03*
X39591Y37238I99J6417D01*
G01*
X31275D02*
G03*
X35532Y35709I4158J4888D01*
G01*
X38268Y42126D02*
G03*
X38268Y42126I-2835J0D01*
G01*
X22708Y46968D02*
G03*
X22894Y46891I186J186D01*
G01*
Y37361D02*
G03*
X22708Y37284I0J-263D01*
G01*
Y46968D02*
G03*
X22894Y46891I186J186D01*
G01*
Y37361D02*
G03*
X22708Y37284I0J-263D01*
G01*
X18603Y48543D02*
G03*
X14346Y47014I-99J-6417D01*
G01*
X14300Y37284D02*
G03*
X14114Y37361I-186J-186D01*
G01*
Y46891D02*
G03*
X14300Y46968I0J263D01*
G01*
X22662Y47014D02*
G03*
X18405Y48543I-4158J-4888D01*
G01*
Y35709D02*
G03*
X22662Y37238I99J6417D01*
G01*
X14346D02*
G03*
X18603Y35709I4158J4888D01*
G01*
X21339Y42126D02*
G03*
X21339Y42126I-2835J0D01*
G01*
X43799Y21613D02*
Y25984D01*
X40355Y21613D02*
X43799D01*
X39823D02*
X40355D01*
X39591Y21490D02*
X39637Y21536D01*
X43799Y25984D02*
Y27062D01*
Y26772D02*
Y31143D01*
X39591Y31266D02*
X39637Y31220D01*
X39823Y31143D02*
X40355D01*
X43799Y31147D01*
X26870Y21613D02*
Y25984D01*
X23425Y21613D02*
X26870D01*
X22894D02*
X23425D01*
X22662Y21490D02*
X22708Y21536D01*
X26870Y25984D02*
Y27062D01*
Y26772D02*
Y31143D01*
X22662Y31266D02*
X22708Y31220D01*
X22894Y31143D02*
X23425D01*
X26870Y31147D01*
X39823Y46891D02*
X40355D01*
X43819D01*
Y41929D02*
Y46891D01*
Y37361D02*
Y42323D01*
X40355Y37361D02*
X43819D01*
X39823D02*
X40355D01*
X39591Y47014D02*
X39637Y46968D01*
X39823Y46891D02*
X40355D01*
X39823Y37361D02*
X40355D01*
X39591Y37238D02*
X39637Y37284D01*
X31229D02*
X31275Y37238D01*
X30512Y37361D02*
X31043D01*
X27067D02*
X30512D01*
X27067D02*
Y46891D01*
X30512D01*
X31043D01*
X31229Y46968D02*
X31275Y47014D01*
X22894Y46891D02*
X23425D01*
X26890D01*
Y41929D02*
Y46891D01*
Y37361D02*
Y42323D01*
X23425Y37361D02*
X26890D01*
X22894D02*
X23425D01*
X22662Y47014D02*
X22708Y46968D01*
X22894Y46891D02*
X23425D01*
X22894Y37361D02*
X23425D01*
X22662Y37238D02*
X22708Y37284D01*
X14300D02*
X14346Y37238D01*
X13582Y37361D02*
X14114D01*
X10138D02*
X13582D01*
X10138D02*
Y46891D01*
X13582D01*
X14114D01*
X14300Y46968D02*
X14346Y47014D01*
M02*
