M48
;Layer_Color=9474304
;FILE_FORMAT=2:4
INCH,LZ
;TYPE=PLATED
T1F00S00C0.0157
T2F00S00C0.0591
%
T01
X038976Y026181
Y026476
X022047
Y026181
T02
X043504Y022441
Y024016
Y025591
Y027165
Y02874
Y030315
X026575
Y02874
Y027165
Y025591
Y024016
Y022441
X010433Y038189
Y039764
Y041339
Y042913
Y044488
Y046063
X026575
X027362
Y044488
X026575
Y042913
X027362
Y041339
X026575
Y039764
X027362
Y038189
X026575
X043504
Y039764
Y041339
Y042913
Y044488
Y046063
M30
