G04*
G04 #@! TF.GenerationSoftware,Altium Limited,Altium Designer,19.0.12 (326)*
G04*
G04 Layer_Physical_Order=2*
G04 Layer_Color=16711680*
%FSLAX24Y24*%
%MOIN*%
G70*
G01*
G75*
%ADD11C,0.0197*%
%ADD12C,0.2165*%
%ADD13R,0.0787X0.0984*%
%ADD14C,0.0315*%
G36*
X26890Y45571D02*
X23917Y45571D01*
X21929Y43583D01*
X21213Y44488D01*
X21929Y46191D01*
X21979Y46555D01*
X26890Y46555D01*
X26890Y45571D01*
D02*
G37*
G36*
X26890Y44980D02*
X26890Y43996D01*
X24813D01*
X23258Y42441D01*
X22093Y42441D01*
X21984Y43234D01*
X23730Y44980D01*
X26890Y44980D01*
D02*
G37*
G36*
X31201Y41831D02*
X27047Y41831D01*
X27047Y40846D01*
X29124D01*
X30679Y39291D01*
X31844Y39291D01*
X32074Y40958D01*
X31201Y41831D01*
D02*
G37*
G36*
Y42421D02*
X27047Y42421D01*
X27047Y43406D01*
X29124D01*
X30679Y44961D01*
X31844Y44961D01*
X32074Y43294D01*
X31201Y42421D01*
D02*
G37*
D11*
X35433Y22736D02*
G03*
X39359Y26379I0J3937D01*
G01*
X39370Y26378D02*
G03*
X35433Y30315I-3937J0D01*
G01*
Y22441D02*
G03*
X39655Y26379I0J4232D01*
G01*
X35433Y22146D02*
G03*
X39951Y26379I0J4528D01*
G01*
X41142Y26378D02*
G03*
X35433Y32087I-5709J0D01*
G01*
D02*
G03*
X29724Y26378I0J-5709D01*
G01*
X31496D02*
G03*
X35433Y22441I3937J0D01*
G01*
X30906Y26378D02*
G03*
X35433Y21850I4528J0D01*
G01*
Y31496D02*
G03*
X30315Y26378I0J-5118D01*
G01*
X35433Y20965D02*
G03*
X41134Y26383I0J5709D01*
G01*
X35433Y30315D02*
G03*
X31496Y26378I0J-3937D01*
G01*
X30020D02*
G03*
X35433Y20965I5413J0D01*
G01*
X29724Y26378D02*
G03*
X35433Y20669I5709J0D01*
G01*
X39665Y26378D02*
G03*
X35433Y30610I-4232J0D01*
G01*
Y30905D02*
G03*
X30906Y26378I0J-4528D01*
G01*
X40256D02*
G03*
X35433Y31201I-4823J0D01*
G01*
X40551Y26378D02*
G03*
X35433Y31496I-5118J0D01*
G01*
Y31791D02*
G03*
X30020Y26378I0J-5413D01*
G01*
X39047Y26222D02*
G03*
X39073Y26575I-3614J452D01*
G01*
X31201Y26378D02*
G03*
X35433Y22146I4232J0D01*
G01*
X39961Y26378D02*
G03*
X35433Y30905I-4528J0D01*
G01*
X40846Y26378D02*
G03*
X35433Y31791I-5413J0D01*
G01*
Y30020D02*
G03*
X31791Y26378I0J-3642D01*
G01*
D02*
G03*
X35433Y22736I3642J0D01*
G01*
Y31201D02*
G03*
X30610Y26378I0J-4823D01*
G01*
X35433Y21555D02*
G03*
X40543Y26378I0J5118D01*
G01*
X35433Y21850D02*
G03*
X40247Y26379I0J4823D01*
G01*
X30315Y26378D02*
G03*
X35433Y21260I5118J0D01*
G01*
X39069Y26575D02*
G03*
X35433Y30020I-3636J-197D01*
G01*
Y30610D02*
G03*
X31201Y26378I0J-4232D01*
G01*
X30610D02*
G03*
X35433Y21555I4823J0D01*
G01*
Y21260D02*
G03*
X40838Y26378I0J5413D01*
G01*
X35433Y20669D02*
G03*
X41437Y26673I0J6004D01*
G01*
X42323Y27559D02*
G03*
X41437Y26673I0J-886D01*
G01*
X18504Y22736D02*
G03*
X22430Y26379I0J3937D01*
G01*
X22441Y26378D02*
G03*
X18504Y30315I-3937J0D01*
G01*
Y22441D02*
G03*
X22726Y26379I0J4232D01*
G01*
X18504Y22146D02*
G03*
X23022Y26379I0J4528D01*
G01*
X24213Y26378D02*
G03*
X18504Y32087I-5709J0D01*
G01*
D02*
G03*
X12795Y26378I0J-5709D01*
G01*
X14567D02*
G03*
X18504Y22441I3937J0D01*
G01*
X13976Y26378D02*
G03*
X18504Y21850I4528J0D01*
G01*
Y31496D02*
G03*
X13386Y26378I0J-5118D01*
G01*
X18504Y20965D02*
G03*
X24205Y26383I0J5709D01*
G01*
X18504Y30315D02*
G03*
X14567Y26378I0J-3937D01*
G01*
X13091D02*
G03*
X18504Y20965I5413J0D01*
G01*
X12795Y26378D02*
G03*
X18504Y20669I5709J0D01*
G01*
X22736Y26378D02*
G03*
X18504Y30610I-4232J0D01*
G01*
Y30905D02*
G03*
X13976Y26378I0J-4528D01*
G01*
X23327D02*
G03*
X18504Y31201I-4823J0D01*
G01*
X23622Y26378D02*
G03*
X18504Y31496I-5118J0D01*
G01*
Y31791D02*
G03*
X13091Y26378I0J-5413D01*
G01*
X22118Y26222D02*
G03*
X22144Y26575I-3614J452D01*
G01*
X14272Y26378D02*
G03*
X18504Y22146I4232J0D01*
G01*
X23031Y26378D02*
G03*
X18504Y30905I-4528J0D01*
G01*
X23917Y26378D02*
G03*
X18504Y31791I-5413J0D01*
G01*
Y30020D02*
G03*
X14862Y26378I0J-3642D01*
G01*
D02*
G03*
X18504Y22736I3642J0D01*
G01*
Y31201D02*
G03*
X13681Y26378I0J-4823D01*
G01*
X18504Y21555D02*
G03*
X23614Y26378I0J5118D01*
G01*
X18504Y21850D02*
G03*
X23318Y26379I0J4823D01*
G01*
X13386Y26378D02*
G03*
X18504Y21260I5118J0D01*
G01*
X22140Y26575D02*
G03*
X18504Y30020I-3636J-197D01*
G01*
Y30610D02*
G03*
X14272Y26378I0J-4232D01*
G01*
X13681D02*
G03*
X18504Y21555I4823J0D01*
G01*
Y21260D02*
G03*
X23909Y26378I0J5413D01*
G01*
X18504Y20669D02*
G03*
X24508Y26673I0J6004D01*
G01*
X25394Y27559D02*
G03*
X24508Y26673I0J-886D01*
G01*
X42323Y27559D02*
X43406D01*
X25394D02*
X26476D01*
D12*
X40079Y42126D02*
G03*
X35433Y46772I-4646J0D01*
G01*
D02*
G03*
X30997Y43506I0J-4646D01*
G01*
X30997Y40748D02*
G03*
X35433Y37480I4437J1378D01*
G01*
D02*
G03*
X40079Y42126I0J4646D01*
G01*
X18504Y46772D02*
G03*
X13858Y42126I0J-4646D01*
G01*
X21983Y45205D02*
G03*
X18504Y46772I-3479J-3079D01*
G01*
Y37480D02*
G03*
X23097Y42825I0J4646D01*
G01*
X13858Y42126D02*
G03*
X18504Y37480I4646J0D01*
G01*
D13*
X43406Y27165D02*
D03*
Y30315D02*
D03*
Y28740D02*
D03*
Y25591D02*
D03*
Y24016D02*
D03*
Y22441D02*
D03*
X26476Y27165D02*
D03*
Y30315D02*
D03*
Y28740D02*
D03*
Y25591D02*
D03*
Y24016D02*
D03*
Y22441D02*
D03*
X27460Y42913D02*
D03*
Y46063D02*
D03*
Y44488D02*
D03*
Y41339D02*
D03*
Y39764D02*
D03*
Y38189D02*
D03*
X43406D02*
D03*
Y39764D02*
D03*
Y41339D02*
D03*
Y44488D02*
D03*
Y46063D02*
D03*
Y42913D02*
D03*
X10531D02*
D03*
Y46063D02*
D03*
Y44488D02*
D03*
Y41339D02*
D03*
Y39764D02*
D03*
Y38189D02*
D03*
X26476D02*
D03*
Y39764D02*
D03*
Y41339D02*
D03*
Y44488D02*
D03*
Y46063D02*
D03*
Y42913D02*
D03*
D14*
X38976Y26181D02*
D03*
Y26476D02*
D03*
X22047Y26181D02*
D03*
Y26476D02*
D03*
M02*
